<?xml version="1.0" encoding="UTF-8" standalone="no"?>
<!DOCTYPE svg PUBLIC "-//W3C//DTD SVG 1.1//EN"
 "http://www.w3.org/Graphics/SVG/1.1/DTD/svg11.dtd">
<!-- Generated by graphviz version 5.0.0 (20220707.1540)
 -->
<!-- Title: dependencies Pages: 1 -->
<svg width="966pt" height="174pt"
 viewBox="0.00 0.00 966.00 173.80" xmlns="http://www.w3.org/2000/svg" xmlns:xlink="http://www.w3.org/1999/xlink">
<g id="graph0" class="graph" transform="scale(1 1) rotate(0) translate(4 169.8)">
<title>dependencies</title>
<polygon fill="white" stroke="transparent" points="-4,4 -4,-169.8 962,-169.8 962,4 -4,4"/>
<text text-anchor="middle" x="479" y="-8.2" font-family="sans-serif" font-size="14.00">dependencies</text>
<g id="clust1" class="cluster">
<title>cluster_DashboardModule</title>
<polygon fill="none" stroke="black" stroke-dasharray="1,5" points="8,-32.8 8,-157.8 950,-157.8 950,-32.8 8,-32.8"/>
</g>
<g id="clust2" class="cluster">
<title>cluster_DashboardModule_declarations</title>
<polygon fill="none" stroke="black" points="16,-40.8 16,-92.8 942,-92.8 942,-40.8 16,-40.8"/>
</g>
<!-- BlogCardsComponent -->
<g id="node1" class="node">
<title>BlogCardsComponent</title>
<polygon fill="#ffffb3" stroke="black" points="933.72,-84.8 792.28,-84.8 792.28,-48.8 933.72,-48.8 933.72,-84.8"/>
<text text-anchor="middle" x="863" y="-62.6" font-family="Times,serif" font-size="14.00">BlogCardsComponent</text>
</g>
<!-- DashboardModule -->
<g id="node7" class="node">
<title>DashboardModule</title>
<polygon fill="#8dd3c7" stroke="black" points="544.2,-149.8 541.2,-153.8 520.2,-153.8 517.2,-149.8 423.8,-149.8 423.8,-113.8 544.2,-113.8 544.2,-149.8"/>
<text text-anchor="middle" x="484" y="-127.6" font-family="Times,serif" font-size="14.00">DashboardModule</text>
</g>
<!-- BlogCardsComponent&#45;&gt;DashboardModule -->
<g id="edge1" class="edge">
<title>BlogCardsComponent&#45;&gt;DashboardModule</title>
<path fill="none" stroke="black" d="M863,-85.08C863,-106.12 863,-137.8 863,-137.8 863,-137.8 554.47,-137.8 554.47,-137.8"/>
<polygon fill="black" stroke="black" points="554.47,-134.3 544.47,-137.8 554.47,-141.3 554.47,-134.3"/>
</g>
<!-- DashboardComponent -->
<g id="node2" class="node">
<title>DashboardComponent</title>
<polygon fill="#ffffb3" stroke="black" points="773.98,-84.8 632.02,-84.8 632.02,-48.8 773.98,-48.8 773.98,-84.8"/>
<text text-anchor="middle" x="703" y="-62.6" font-family="Times,serif" font-size="14.00">DashboardComponent</text>
</g>
<!-- DashboardComponent&#45;&gt;DashboardModule -->
<g id="edge2" class="edge">
<title>DashboardComponent&#45;&gt;DashboardModule</title>
<path fill="none" stroke="black" d="M703,-84.82C703,-102.17 703,-125.8 703,-125.8 703,-125.8 554.13,-125.8 554.13,-125.8"/>
<polygon fill="black" stroke="black" points="554.13,-122.3 544.13,-125.8 554.13,-129.3 554.13,-122.3"/>
</g>
<!-- FeedsComponent -->
<g id="node3" class="node">
<title>FeedsComponent</title>
<polygon fill="#ffffb3" stroke="black" points="613.99,-84.8 500.01,-84.8 500.01,-48.8 613.99,-48.8 613.99,-84.8"/>
<text text-anchor="middle" x="557" y="-62.6" font-family="Times,serif" font-size="14.00">FeedsComponent</text>
</g>
<!-- FeedsComponent&#45;&gt;DashboardModule -->
<g id="edge3" class="edge">
<title>FeedsComponent&#45;&gt;DashboardModule</title>
<path fill="none" stroke="black" d="M522.05,-84.91C522.05,-84.91 522.05,-103.79 522.05,-103.79"/>
<polygon fill="black" stroke="black" points="518.55,-103.79 522.05,-113.79 525.55,-103.79 518.55,-103.79"/>
</g>
<!-- SalesRatioComponent -->
<g id="node4" class="node">
<title>SalesRatioComponent</title>
<polygon fill="#ffffb3" stroke="black" points="481.71,-84.8 340.29,-84.8 340.29,-48.8 481.71,-48.8 481.71,-84.8"/>
<text text-anchor="middle" x="411" y="-62.6" font-family="Times,serif" font-size="14.00">SalesRatioComponent</text>
</g>
<!-- SalesRatioComponent&#45;&gt;DashboardModule -->
<g id="edge4" class="edge">
<title>SalesRatioComponent&#45;&gt;DashboardModule</title>
<path fill="none" stroke="black" d="M452.75,-84.91C452.75,-84.91 452.75,-103.79 452.75,-103.79"/>
<polygon fill="black" stroke="black" points="449.25,-103.79 452.75,-113.79 456.25,-103.79 449.25,-103.79"/>
</g>
<!-- TopCardsComponent -->
<g id="node5" class="node">
<title>TopCardsComponent</title>
<polygon fill="#ffffb3" stroke="black" points="322.05,-84.8 185.95,-84.8 185.95,-48.8 322.05,-48.8 322.05,-84.8"/>
<text text-anchor="middle" x="254" y="-62.6" font-family="Times,serif" font-size="14.00">TopCardsComponent</text>
</g>
<!-- TopCardsComponent&#45;&gt;DashboardModule -->
<g id="edge5" class="edge">
<title>TopCardsComponent&#45;&gt;DashboardModule</title>
<path fill="none" stroke="black" d="M254,-84.82C254,-102.17 254,-125.8 254,-125.8 254,-125.8 413.87,-125.8 413.87,-125.8"/>
<polygon fill="black" stroke="black" points="413.87,-129.3 423.87,-125.8 413.87,-122.3 413.87,-129.3"/>
</g>
<!-- TopSellingComponent -->
<g id="node6" class="node">
<title>TopSellingComponent</title>
<polygon fill="#ffffb3" stroke="black" points="167.55,-84.8 24.45,-84.8 24.45,-48.8 167.55,-48.8 167.55,-84.8"/>
<text text-anchor="middle" x="96" y="-62.6" font-family="Times,serif" font-size="14.00">TopSellingComponent</text>
</g>
<!-- TopSellingComponent&#45;&gt;DashboardModule -->
<g id="edge6" class="edge">
<title>TopSellingComponent&#45;&gt;DashboardModule</title>
<path fill="none" stroke="black" d="M96,-85.08C96,-106.12 96,-137.8 96,-137.8 96,-137.8 413.8,-137.8 413.8,-137.8"/>
<polygon fill="black" stroke="black" points="413.8,-141.3 423.8,-137.8 413.8,-134.3 413.8,-141.3"/>
</g>
</g>
</svg>
