<?xml version="1.0" encoding="UTF-8" standalone="no"?>
<!DOCTYPE svg PUBLIC "-//W3C//DTD SVG 1.1//EN"
 "http://www.w3.org/Graphics/SVG/1.1/DTD/svg11.dtd">
<!-- Generated by graphviz version 5.0.0 (20220707.1540)
 -->
<!-- Title: dependencies Pages: 1 -->
<svg width="2331pt" height="247pt"
 viewBox="0.00 0.00 2331.00 246.80" xmlns="http://www.w3.org/2000/svg" xmlns:xlink="http://www.w3.org/1999/xlink">
<g id="graph0" class="graph" transform="scale(1 1) rotate(0) translate(4 242.8)">
<title>dependencies</title>
<polygon fill="white" stroke="transparent" points="-4,4 -4,-242.8 2327,-242.8 2327,4 -4,4"/>
<text text-anchor="middle" x="1161.5" y="-8.2" font-family="sans-serif" font-size="14.00">dependencies</text>
<g id="clust1" class="cluster">
<title>cluster_AppModule</title>
<polygon fill="none" stroke="black" stroke-dasharray="1,5" points="8,-32.8 8,-230.8 2315,-230.8 2315,-32.8 8,-32.8"/>
</g>
<g id="clust18" class="cluster">
<title>cluster_AppModule_bootstrap</title>
<polygon fill="none" stroke="black" points="1106,-170.8 1106,-222.8 1230,-222.8 1230,-170.8 1106,-170.8"/>
</g>
<g id="clust2" class="cluster">
<title>cluster_AppModule_declarations</title>
<polygon fill="none" stroke="black" points="16,-40.8 16,-92.8 2307,-92.8 2307,-40.8 16,-40.8"/>
</g>
<!-- ActionsDialogComponent -->
<g id="node1" class="node">
<title>ActionsDialogComponent</title>
<polygon fill="#ffffb3" stroke="black" points="2299.49,-84.8 2136.51,-84.8 2136.51,-48.8 2299.49,-48.8 2299.49,-84.8"/>
<text text-anchor="middle" x="2218" y="-62.6" font-family="Times,serif" font-size="14.00">ActionsDialogComponent</text>
</g>
<!-- AppModule -->
<g id="node14" class="node">
<title>AppModule</title>
<polygon fill="#8dd3c7" stroke="black" points="1209.66,-149.8 1206.66,-153.8 1185.66,-153.8 1182.66,-149.8 1126.34,-149.8 1126.34,-113.8 1209.66,-113.8 1209.66,-149.8"/>
<text text-anchor="middle" x="1168" y="-127.6" font-family="Times,serif" font-size="14.00">AppModule</text>
</g>
<!-- ActionsDialogComponent&#45;&gt;AppModule -->
<g id="edge1" class="edge">
<title>ActionsDialogComponent&#45;&gt;AppModule</title>
<path fill="none" stroke="black" d="M2218,-84.89C2218,-107.93 2218,-144.8 2218,-144.8 2218,-144.8 1219.81,-144.8 1219.81,-144.8"/>
<polygon fill="black" stroke="black" points="1219.81,-141.3 1209.81,-144.8 1219.81,-148.3 1219.81,-141.3"/>
</g>
<!-- AppComponent -->
<g id="node2" class="node">
<title>AppComponent</title>
<polygon fill="#ffffb3" stroke="black" points="2118.94,-84.8 2013.06,-84.8 2013.06,-48.8 2118.94,-48.8 2118.94,-84.8"/>
<text text-anchor="middle" x="2066" y="-62.6" font-family="Times,serif" font-size="14.00">AppComponent</text>
</g>
<!-- AppComponent&#45;&gt;AppModule -->
<g id="edge2" class="edge">
<title>AppComponent&#45;&gt;AppModule</title>
<path fill="none" stroke="black" d="M2066,-84.84C2066,-106.46 2066,-139.8 2066,-139.8 2066,-139.8 1219.81,-139.8 1219.81,-139.8"/>
<polygon fill="black" stroke="black" points="1219.81,-136.3 1209.81,-139.8 1219.81,-143.3 1219.81,-136.3"/>
</g>
<!-- ConsultaEmpresaComponent -->
<g id="node3" class="node">
<title>ConsultaEmpresaComponent</title>
<polygon fill="#ffffb3" stroke="black" points="1995.09,-84.8 1814.91,-84.8 1814.91,-48.8 1995.09,-48.8 1995.09,-84.8"/>
<text text-anchor="middle" x="1905" y="-62.6" font-family="Times,serif" font-size="14.00">ConsultaEmpresaComponent</text>
</g>
<!-- ConsultaEmpresaComponent&#45;&gt;AppModule -->
<g id="edge3" class="edge">
<title>ConsultaEmpresaComponent&#45;&gt;AppModule</title>
<path fill="none" stroke="black" d="M1905,-85.02C1905,-105.17 1905,-134.8 1905,-134.8 1905,-134.8 1219.74,-134.8 1219.74,-134.8"/>
<polygon fill="black" stroke="black" points="1219.74,-131.3 1209.74,-134.8 1219.74,-138.3 1219.74,-131.3"/>
</g>
<!-- CronogramaSolicitudComponent -->
<g id="node4" class="node">
<title>CronogramaSolicitudComponent</title>
<polygon fill="#ffffb3" stroke="black" points="1796.87,-84.8 1595.13,-84.8 1595.13,-48.8 1796.87,-48.8 1796.87,-84.8"/>
<text text-anchor="middle" x="1696" y="-62.6" font-family="Times,serif" font-size="14.00">CronogramaSolicitudComponent</text>
</g>
<!-- CronogramaSolicitudComponent&#45;&gt;AppModule -->
<g id="edge4" class="edge">
<title>CronogramaSolicitudComponent&#45;&gt;AppModule</title>
<path fill="none" stroke="black" d="M1696,-85.02C1696,-103.63 1696,-129.8 1696,-129.8 1696,-129.8 1219.87,-129.8 1219.87,-129.8"/>
<polygon fill="black" stroke="black" points="1219.87,-126.3 1209.87,-129.8 1219.87,-133.3 1219.87,-126.3"/>
</g>
<!-- FormularioInscripcionComponent -->
<g id="node5" class="node">
<title>FormularioInscripcionComponent</title>
<polygon fill="#ffffb3" stroke="black" points="1576.8,-84.8 1369.2,-84.8 1369.2,-48.8 1576.8,-48.8 1576.8,-84.8"/>
<text text-anchor="middle" x="1473" y="-62.6" font-family="Times,serif" font-size="14.00">FormularioInscripcionComponent</text>
</g>
<!-- FormularioInscripcionComponent&#45;&gt;AppModule -->
<g id="edge5" class="edge">
<title>FormularioInscripcionComponent&#45;&gt;AppModule</title>
<path fill="none" stroke="black" d="M1473,-84.83C1473,-101.86 1473,-124.8 1473,-124.8 1473,-124.8 1219.77,-124.8 1219.77,-124.8"/>
<polygon fill="black" stroke="black" points="1219.77,-121.3 1209.77,-124.8 1219.77,-128.3 1219.77,-121.3"/>
</g>
<!-- FullComponent -->
<g id="node6" class="node">
<title>FullComponent</title>
<polygon fill="#ffffb3" stroke="black" points="1350.9,-84.8 1247.1,-84.8 1247.1,-48.8 1350.9,-48.8 1350.9,-84.8"/>
<text text-anchor="middle" x="1299" y="-62.6" font-family="Times,serif" font-size="14.00">FullComponent</text>
</g>
<!-- FullComponent&#45;&gt;AppModule -->
<g id="edge6" class="edge">
<title>FullComponent&#45;&gt;AppModule</title>
<path fill="none" stroke="black" d="M1299,-85.04C1299,-100.37 1299,-119.8 1299,-119.8 1299,-119.8 1219.81,-119.8 1219.81,-119.8"/>
<polygon fill="black" stroke="black" points="1219.81,-116.3 1209.81,-119.8 1219.81,-123.3 1219.81,-116.3"/>
</g>
<!-- HeaderComponent -->
<g id="node7" class="node">
<title>HeaderComponent</title>
<polygon fill="#ffffb3" stroke="black" points="1228.75,-84.8 1107.25,-84.8 1107.25,-48.8 1228.75,-48.8 1228.75,-84.8"/>
<text text-anchor="middle" x="1168" y="-62.6" font-family="Times,serif" font-size="14.00">HeaderComponent</text>
</g>
<!-- HeaderComponent&#45;&gt;AppModule -->
<g id="edge7" class="edge">
<title>HeaderComponent&#45;&gt;AppModule</title>
<path fill="none" stroke="black" d="M1168,-84.91C1168,-84.91 1168,-103.79 1168,-103.79"/>
<polygon fill="black" stroke="black" points="1164.5,-103.79 1168,-113.79 1171.5,-103.79 1164.5,-103.79"/>
</g>
<!-- LoginComponent -->
<g id="node8" class="node">
<title>LoginComponent</title>
<polygon fill="#ffffb3" stroke="black" points="1089.27,-84.8 974.73,-84.8 974.73,-48.8 1089.27,-48.8 1089.27,-84.8"/>
<text text-anchor="middle" x="1032" y="-62.6" font-family="Times,serif" font-size="14.00">LoginComponent</text>
</g>
<!-- LoginComponent&#45;&gt;AppModule -->
<g id="edge8" class="edge">
<title>LoginComponent&#45;&gt;AppModule</title>
<path fill="none" stroke="black" d="M1032,-85.04C1032,-100.37 1032,-119.8 1032,-119.8 1032,-119.8 1116.09,-119.8 1116.09,-119.8"/>
<polygon fill="black" stroke="black" points="1116.09,-123.3 1126.09,-119.8 1116.09,-116.3 1116.09,-123.3"/>
</g>
<!-- NavigationComponent -->
<g id="node9" class="node">
<title>NavigationComponent</title>
<polygon fill="#ffffb3" stroke="black" points="956.54,-84.8 813.46,-84.8 813.46,-48.8 956.54,-48.8 956.54,-84.8"/>
<text text-anchor="middle" x="885" y="-62.6" font-family="Times,serif" font-size="14.00">NavigationComponent</text>
</g>
<!-- NavigationComponent&#45;&gt;AppModule -->
<g id="edge9" class="edge">
<title>NavigationComponent&#45;&gt;AppModule</title>
<path fill="none" stroke="black" d="M885,-84.83C885,-101.86 885,-124.8 885,-124.8 885,-124.8 1116.24,-124.8 1116.24,-124.8"/>
<polygon fill="black" stroke="black" points="1116.24,-128.3 1126.24,-124.8 1116.24,-121.3 1116.24,-128.3"/>
</g>
<!-- PoliticaPrivacidadComponent -->
<g id="node10" class="node">
<title>PoliticaPrivacidadComponent</title>
<polygon fill="#ffffb3" stroke="black" points="794.97,-84.8 611.03,-84.8 611.03,-48.8 794.97,-48.8 794.97,-84.8"/>
<text text-anchor="middle" x="703" y="-62.6" font-family="Times,serif" font-size="14.00">PoliticaPrivacidadComponent</text>
</g>
<!-- PoliticaPrivacidadComponent&#45;&gt;AppModule -->
<g id="edge10" class="edge">
<title>PoliticaPrivacidadComponent&#45;&gt;AppModule</title>
<path fill="none" stroke="black" d="M703,-85.02C703,-103.63 703,-129.8 703,-129.8 703,-129.8 1116.33,-129.8 1116.33,-129.8"/>
<polygon fill="black" stroke="black" points="1116.33,-133.3 1126.33,-129.8 1116.33,-126.3 1116.33,-133.3"/>
</g>
<!-- SidebarComponent -->
<g id="node11" class="node">
<title>SidebarComponent</title>
<polygon fill="#ffffb3" stroke="black" points="593.1,-84.8 468.9,-84.8 468.9,-48.8 593.1,-48.8 593.1,-84.8"/>
<text text-anchor="middle" x="531" y="-62.6" font-family="Times,serif" font-size="14.00">SidebarComponent</text>
</g>
<!-- SidebarComponent&#45;&gt;AppModule -->
<g id="edge11" class="edge">
<title>SidebarComponent&#45;&gt;AppModule</title>
<path fill="none" stroke="black" d="M531,-85.02C531,-105.17 531,-134.8 531,-134.8 531,-134.8 1116.2,-134.8 1116.2,-134.8"/>
<polygon fill="black" stroke="black" points="1116.2,-138.3 1126.2,-134.8 1116.2,-131.3 1116.2,-138.3"/>
</g>
<!-- SolicitudesPersonasComponent -->
<g id="node12" class="node">
<title>SolicitudesPersonasComponent</title>
<polygon fill="#ffffb3" stroke="black" points="450.82,-84.8 257.18,-84.8 257.18,-48.8 450.82,-48.8 450.82,-84.8"/>
<text text-anchor="middle" x="354" y="-62.6" font-family="Times,serif" font-size="14.00">SolicitudesPersonasComponent</text>
</g>
<!-- SolicitudesPersonasComponent&#45;&gt;AppModule -->
<g id="edge12" class="edge">
<title>SolicitudesPersonasComponent&#45;&gt;AppModule</title>
<path fill="none" stroke="black" d="M354,-84.84C354,-106.46 354,-139.8 354,-139.8 354,-139.8 1116.23,-139.8 1116.23,-139.8"/>
<polygon fill="black" stroke="black" points="1116.23,-143.3 1126.23,-139.8 1116.23,-136.3 1116.23,-143.3"/>
</g>
<!-- TerminosYCondicionesComponent -->
<g id="node13" class="node">
<title>TerminosYCondicionesComponent</title>
<polygon fill="#ffffb3" stroke="black" points="239.59,-84.8 24.41,-84.8 24.41,-48.8 239.59,-48.8 239.59,-84.8"/>
<text text-anchor="middle" x="132" y="-62.6" font-family="Times,serif" font-size="14.00">TerminosYCondicionesComponent</text>
</g>
<!-- TerminosYCondicionesComponent&#45;&gt;AppModule -->
<g id="edge13" class="edge">
<title>TerminosYCondicionesComponent&#45;&gt;AppModule</title>
<path fill="none" stroke="black" d="M132,-84.89C132,-107.93 132,-144.8 132,-144.8 132,-144.8 1116.1,-144.8 1116.1,-144.8"/>
<polygon fill="black" stroke="black" points="1116.1,-148.3 1126.1,-144.8 1116.1,-141.3 1116.1,-148.3"/>
</g>
<!-- AppComponent  -->
<g id="node15" class="node">
<title>AppComponent </title>
<polygon fill="#80b1d3" stroke="black" points="1222.44,-214.8 1113.56,-214.8 1113.56,-178.8 1222.44,-178.8 1222.44,-214.8"/>
<text text-anchor="middle" x="1168" y="-192.6" font-family="Times,serif" font-size="14.00">AppComponent </text>
</g>
<!-- AppModule&#45;&gt;AppComponent  -->
<g id="edge14" class="edge">
<title>AppModule&#45;&gt;AppComponent </title>
<path fill="none" stroke="black" stroke-dasharray="1,5" d="M1168,-149.91C1168,-149.91 1168,-168.79 1168,-168.79"/>
<polygon fill="black" stroke="black" points="1164.5,-168.79 1168,-178.79 1171.5,-168.79 1164.5,-168.79"/>
</g>
</g>
</svg>
