<?xml version="1.0" encoding="UTF-8" standalone="no"?>
<!DOCTYPE svg PUBLIC "-//W3C//DTD SVG 1.1//EN"
 "http://www.w3.org/Graphics/SVG/1.1/DTD/svg11.dtd">
<!-- Generated by graphviz version 5.0.0 (20220707.1540)
 -->
<!-- Title: dependencies Pages: 1 -->
<svg width="2926pt" height="174pt"
 viewBox="0.00 0.00 2926.00 173.80" xmlns="http://www.w3.org/2000/svg" xmlns:xlink="http://www.w3.org/1999/xlink">
<g id="graph0" class="graph" transform="scale(1 1) rotate(0) translate(4 169.8)">
<title>dependencies</title>
<polygon fill="white" stroke="transparent" points="-4,4 -4,-169.8 2922,-169.8 2922,4 -4,4"/>
<text text-anchor="middle" x="1459" y="-8.2" font-family="sans-serif" font-size="14.00">dependencies</text>
<g id="clust1" class="cluster">
<title>cluster_ComponentsModule</title>
<polygon fill="none" stroke="black" stroke-dasharray="1,5" points="8,-32.8 8,-157.8 2910,-157.8 2910,-32.8 8,-32.8"/>
</g>
<g id="clust2" class="cluster">
<title>cluster_ComponentsModule_declarations</title>
<polygon fill="none" stroke="black" points="16,-40.8 16,-92.8 2902,-92.8 2902,-40.8 16,-40.8"/>
</g>
<!-- ButtonsComponent -->
<g id="node1" class="node">
<title>ButtonsComponent</title>
<polygon fill="#ffffb3" stroke="black" points="2894.4,-84.8 2769.6,-84.8 2769.6,-48.8 2894.4,-48.8 2894.4,-84.8"/>
<text text-anchor="middle" x="2832" y="-62.6" font-family="Times,serif" font-size="14.00">ButtonsComponent</text>
</g>
<!-- ComponentsModule -->
<g id="node17" class="node">
<title>ComponentsModule</title>
<polygon fill="#8dd3c7" stroke="black" points="1562.33,-149.8 1559.33,-153.8 1538.33,-153.8 1535.33,-149.8 1431.67,-149.8 1431.67,-113.8 1562.33,-113.8 1562.33,-149.8"/>
<text text-anchor="middle" x="1497" y="-127.6" font-family="Times,serif" font-size="14.00">ComponentsModule</text>
</g>
<!-- ButtonsComponent&#45;&gt;ComponentsModule -->
<g id="edge1" class="edge">
<title>ButtonsComponent&#45;&gt;ComponentsModule</title>
<path fill="none" stroke="black" d="M2832,-85.12C2832,-108.46 2832,-145.8 2832,-145.8 2832,-145.8 1572.29,-145.8 1572.29,-145.8"/>
<polygon fill="black" stroke="black" points="1572.29,-142.3 1562.29,-145.8 1572.29,-149.3 1572.29,-142.3"/>
</g>
<!-- CardsComponent -->
<g id="node2" class="node">
<title>CardsComponent</title>
<polygon fill="#ffffb3" stroke="black" points="2751.99,-84.8 2638.01,-84.8 2638.01,-48.8 2751.99,-48.8 2751.99,-84.8"/>
<text text-anchor="middle" x="2695" y="-62.6" font-family="Times,serif" font-size="14.00">CardsComponent</text>
</g>
<!-- CardsComponent&#45;&gt;ComponentsModule -->
<g id="edge2" class="edge">
<title>CardsComponent&#45;&gt;ComponentsModule</title>
<path fill="none" stroke="black" d="M2695,-85.09C2695,-107.01 2695,-140.8 2695,-140.8 2695,-140.8 1572.26,-140.8 1572.26,-140.8"/>
<polygon fill="black" stroke="black" points="1572.26,-137.3 1562.26,-140.8 1572.26,-144.3 1572.26,-137.3"/>
</g>
<!-- DocentesComponent -->
<g id="node3" class="node">
<title>DocentesComponent</title>
<polygon fill="#ffffb3" stroke="black" points="2619.92,-84.8 2486.08,-84.8 2486.08,-48.8 2619.92,-48.8 2619.92,-84.8"/>
<text text-anchor="middle" x="2553" y="-62.6" font-family="Times,serif" font-size="14.00">DocentesComponent</text>
</g>
<!-- DocentesComponent&#45;&gt;ComponentsModule -->
<g id="edge3" class="edge">
<title>DocentesComponent&#45;&gt;ComponentsModule</title>
<path fill="none" stroke="black" d="M2553,-84.83C2553,-105.57 2553,-136.8 2553,-136.8 2553,-136.8 1572.26,-136.8 1572.26,-136.8"/>
<polygon fill="black" stroke="black" points="1572.26,-133.3 1562.26,-136.8 1572.26,-140.3 1572.26,-133.3"/>
</g>
<!-- EmpresasComponent -->
<g id="node4" class="node">
<title>EmpresasComponent</title>
<polygon fill="#ffffb3" stroke="black" points="2467.76,-84.8 2332.24,-84.8 2332.24,-48.8 2467.76,-48.8 2467.76,-84.8"/>
<text text-anchor="middle" x="2400" y="-62.6" font-family="Times,serif" font-size="14.00">EmpresasComponent</text>
</g>
<!-- EmpresasComponent&#45;&gt;ComponentsModule -->
<g id="edge4" class="edge">
<title>EmpresasComponent&#45;&gt;ComponentsModule</title>
<path fill="none" stroke="black" d="M2400,-84.91C2400,-104.14 2400,-131.8 2400,-131.8 2400,-131.8 1572.3,-131.8 1572.3,-131.8"/>
<polygon fill="black" stroke="black" points="1572.3,-128.3 1562.3,-131.8 1572.3,-135.3 1572.3,-128.3"/>
</g>
<!-- FormularioDocenteComponent -->
<g id="node5" class="node">
<title>FormularioDocenteComponent</title>
<polygon fill="#ffffb3" stroke="black" points="2314.47,-84.8 2123.53,-84.8 2123.53,-48.8 2314.47,-48.8 2314.47,-84.8"/>
<text text-anchor="middle" x="2219" y="-62.6" font-family="Times,serif" font-size="14.00">FormularioDocenteComponent</text>
</g>
<!-- FormularioDocenteComponent&#45;&gt;ComponentsModule -->
<g id="edge5" class="edge">
<title>FormularioDocenteComponent&#45;&gt;ComponentsModule</title>
<path fill="none" stroke="black" d="M2219,-85.1C2219,-103.07 2219,-127.8 2219,-127.8 2219,-127.8 1572.35,-127.8 1572.35,-127.8"/>
<polygon fill="black" stroke="black" points="1572.35,-124.3 1562.35,-127.8 1572.35,-131.3 1572.35,-124.3"/>
</g>
<!-- FormularioEmpresaComponent -->
<g id="node6" class="node">
<title>FormularioEmpresaComponent</title>
<polygon fill="#ffffb3" stroke="black" points="2105.8,-84.8 1912.2,-84.8 1912.2,-48.8 2105.8,-48.8 2105.8,-84.8"/>
<text text-anchor="middle" x="2009" y="-62.6" font-family="Times,serif" font-size="14.00">FormularioEmpresaComponent</text>
</g>
<!-- FormularioEmpresaComponent&#45;&gt;ComponentsModule -->
<g id="edge6" class="edge">
<title>FormularioEmpresaComponent&#45;&gt;ComponentsModule</title>
<path fill="none" stroke="black" d="M2009,-84.83C2009,-101.2 2009,-122.8 2009,-122.8 2009,-122.8 1572.37,-122.8 1572.37,-122.8"/>
<polygon fill="black" stroke="black" points="1572.37,-119.3 1562.37,-122.8 1572.37,-126.3 1572.37,-119.3"/>
</g>
<!-- FormularioInscritosComponent -->
<g id="node7" class="node">
<title>FormularioInscritosComponent</title>
<polygon fill="#ffffb3" stroke="black" points="1894.04,-84.8 1701.96,-84.8 1701.96,-48.8 1894.04,-48.8 1894.04,-84.8"/>
<text text-anchor="middle" x="1798" y="-62.6" font-family="Times,serif" font-size="14.00">FormularioInscritosComponent</text>
</g>
<!-- FormularioInscritosComponent&#45;&gt;ComponentsModule -->
<g id="edge7" class="edge">
<title>FormularioInscritosComponent&#45;&gt;ComponentsModule</title>
<path fill="none" stroke="black" d="M1798,-84.99C1798,-99.98 1798,-118.8 1798,-118.8 1798,-118.8 1572.31,-118.8 1572.31,-118.8"/>
<polygon fill="black" stroke="black" points="1572.31,-115.3 1562.31,-118.8 1572.31,-122.3 1572.31,-115.3"/>
</g>
<!-- FormularioJornadasComponent -->
<g id="node8" class="node">
<title>FormularioJornadasComponent</title>
<polygon fill="#ffffb3" stroke="black" points="1683.81,-84.8 1490.19,-84.8 1490.19,-48.8 1683.81,-48.8 1683.81,-84.8"/>
<text text-anchor="middle" x="1587" y="-62.6" font-family="Times,serif" font-size="14.00">FormularioJornadasComponent</text>
</g>
<!-- FormularioJornadasComponent&#45;&gt;ComponentsModule -->
<g id="edge8" class="edge">
<title>FormularioJornadasComponent&#45;&gt;ComponentsModule</title>
<path fill="none" stroke="black" d="M1526.26,-84.91C1526.26,-84.91 1526.26,-103.79 1526.26,-103.79"/>
<polygon fill="black" stroke="black" points="1522.76,-103.79 1526.26,-113.79 1529.76,-103.79 1522.76,-103.79"/>
</g>
<!-- JornadasComponent -->
<g id="node9" class="node">
<title>JornadasComponent</title>
<polygon fill="#ffffb3" stroke="black" points="1472.32,-84.8 1341.68,-84.8 1341.68,-48.8 1472.32,-48.8 1472.32,-84.8"/>
<text text-anchor="middle" x="1407" y="-62.6" font-family="Times,serif" font-size="14.00">JornadasComponent</text>
</g>
<!-- JornadasComponent&#45;&gt;ComponentsModule -->
<g id="edge9" class="edge">
<title>JornadasComponent&#45;&gt;ComponentsModule</title>
<path fill="none" stroke="black" d="M1452,-84.91C1452,-84.91 1452,-103.79 1452,-103.79"/>
<polygon fill="black" stroke="black" points="1448.5,-103.79 1452,-113.79 1455.5,-103.79 1448.5,-103.79"/>
</g>
<!-- NgbdAlertBasicComponent -->
<g id="node10" class="node">
<title>NgbdAlertBasicComponent</title>
<polygon fill="#ffffb3" stroke="black" points="1324.31,-84.8 1151.69,-84.8 1151.69,-48.8 1324.31,-48.8 1324.31,-84.8"/>
<text text-anchor="middle" x="1238" y="-62.6" font-family="Times,serif" font-size="14.00">NgbdAlertBasicComponent</text>
</g>
<!-- NgbdAlertBasicComponent&#45;&gt;ComponentsModule -->
<g id="edge10" class="edge">
<title>NgbdAlertBasicComponent&#45;&gt;ComponentsModule</title>
<path fill="none" stroke="black" d="M1238,-84.99C1238,-99.98 1238,-118.8 1238,-118.8 1238,-118.8 1421.64,-118.8 1421.64,-118.8"/>
<polygon fill="black" stroke="black" points="1421.64,-122.3 1431.64,-118.8 1421.64,-115.3 1421.64,-122.3"/>
</g>
<!-- NgbdDropdownBasicComponent -->
<g id="node11" class="node">
<title>NgbdDropdownBasicComponent</title>
<polygon fill="#ffffb3" stroke="black" points="1133.93,-84.8 930.07,-84.8 930.07,-48.8 1133.93,-48.8 1133.93,-84.8"/>
<text text-anchor="middle" x="1032" y="-62.6" font-family="Times,serif" font-size="14.00">NgbdDropdownBasicComponent</text>
</g>
<!-- NgbdDropdownBasicComponent&#45;&gt;ComponentsModule -->
<g id="edge11" class="edge">
<title>NgbdDropdownBasicComponent&#45;&gt;ComponentsModule</title>
<path fill="none" stroke="black" d="M1032,-84.83C1032,-101.2 1032,-122.8 1032,-122.8 1032,-122.8 1421.36,-122.8 1421.36,-122.8"/>
<polygon fill="black" stroke="black" points="1421.36,-126.3 1431.36,-122.8 1421.36,-119.3 1421.36,-126.3"/>
</g>
<!-- NgbdnavBasicComponent -->
<g id="node12" class="node">
<title>NgbdnavBasicComponent</title>
<polygon fill="#ffffb3" stroke="black" points="911.76,-84.8 748.24,-84.8 748.24,-48.8 911.76,-48.8 911.76,-84.8"/>
<text text-anchor="middle" x="830" y="-62.6" font-family="Times,serif" font-size="14.00">NgbdnavBasicComponent</text>
</g>
<!-- NgbdnavBasicComponent&#45;&gt;ComponentsModule -->
<g id="edge12" class="edge">
<title>NgbdnavBasicComponent&#45;&gt;ComponentsModule</title>
<path fill="none" stroke="black" d="M830,-85.1C830,-103.07 830,-127.8 830,-127.8 830,-127.8 1421.83,-127.8 1421.83,-127.8"/>
<polygon fill="black" stroke="black" points="1421.83,-131.3 1431.83,-127.8 1421.83,-124.3 1421.83,-131.3"/>
</g>
<!-- NgbdpaginationBasicComponent -->
<g id="node13" class="node">
<title>NgbdpaginationBasicComponent</title>
<polygon fill="#ffffb3" stroke="black" points="730.14,-84.8 527.86,-84.8 527.86,-48.8 730.14,-48.8 730.14,-84.8"/>
<text text-anchor="middle" x="629" y="-62.6" font-family="Times,serif" font-size="14.00">NgbdpaginationBasicComponent</text>
</g>
<!-- NgbdpaginationBasicComponent&#45;&gt;ComponentsModule -->
<g id="edge13" class="edge">
<title>NgbdpaginationBasicComponent&#45;&gt;ComponentsModule</title>
<path fill="none" stroke="black" d="M629,-84.91C629,-104.14 629,-131.8 629,-131.8 629,-131.8 1421.76,-131.8 1421.76,-131.8"/>
<polygon fill="black" stroke="black" points="1421.76,-135.3 1431.76,-131.8 1421.76,-128.3 1421.76,-135.3"/>
</g>
<!-- PlaneadorComponent -->
<g id="node14" class="node">
<title>PlaneadorComponent</title>
<polygon fill="#ffffb3" stroke="black" points="509.81,-84.8 372.19,-84.8 372.19,-48.8 509.81,-48.8 509.81,-84.8"/>
<text text-anchor="middle" x="441" y="-62.6" font-family="Times,serif" font-size="14.00">PlaneadorComponent</text>
</g>
<!-- PlaneadorComponent&#45;&gt;ComponentsModule -->
<g id="edge14" class="edge">
<title>PlaneadorComponent&#45;&gt;ComponentsModule</title>
<path fill="none" stroke="black" d="M441,-84.83C441,-105.57 441,-136.8 441,-136.8 441,-136.8 1421.74,-136.8 1421.74,-136.8"/>
<polygon fill="black" stroke="black" points="1421.74,-140.3 1431.74,-136.8 1421.74,-133.3 1421.74,-140.3"/>
</g>
<!-- SolicitudesEmpresasComponent -->
<g id="node15" class="node">
<title>SolicitudesEmpresasComponent</title>
<polygon fill="#ffffb3" stroke="black" points="353.98,-84.8 156.02,-84.8 156.02,-48.8 353.98,-48.8 353.98,-84.8"/>
<text text-anchor="middle" x="255" y="-62.6" font-family="Times,serif" font-size="14.00">SolicitudesEmpresasComponent</text>
</g>
<!-- SolicitudesEmpresasComponent&#45;&gt;ComponentsModule -->
<g id="edge15" class="edge">
<title>SolicitudesEmpresasComponent&#45;&gt;ComponentsModule</title>
<path fill="none" stroke="black" d="M255,-85.09C255,-107.01 255,-140.8 255,-140.8 255,-140.8 1421.54,-140.8 1421.54,-140.8"/>
<polygon fill="black" stroke="black" points="1421.54,-144.3 1431.54,-140.8 1421.54,-137.3 1421.54,-144.3"/>
</g>
<!-- TableComponent -->
<g id="node16" class="node">
<title>TableComponent</title>
<polygon fill="#ffffb3" stroke="black" points="137.7,-84.8 24.3,-84.8 24.3,-48.8 137.7,-48.8 137.7,-84.8"/>
<text text-anchor="middle" x="81" y="-62.6" font-family="Times,serif" font-size="14.00">TableComponent</text>
</g>
<!-- TableComponent&#45;&gt;ComponentsModule -->
<g id="edge16" class="edge">
<title>TableComponent&#45;&gt;ComponentsModule</title>
<path fill="none" stroke="black" d="M81,-85.12C81,-108.46 81,-145.8 81,-145.8 81,-145.8 1421.54,-145.8 1421.54,-145.8"/>
<polygon fill="black" stroke="black" points="1421.54,-149.3 1431.54,-145.8 1421.54,-142.3 1421.54,-149.3"/>
</g>
</g>
</svg>
